<?xml version="1.0" encoding="utf-8"?>
<!-- Generator: Adobe Illustrator 22.0.1, SVG Export Plug-In . SVG Version: 6.00 Build 0)  -->
<svg version="1.1" id="Laag_1" xmlns="http://www.w3.org/2000/svg" xmlns:xlink="http://www.w3.org/1999/xlink" x="0px" y="0px"
	 viewBox="0 0 360 80" style="enable-background:new 0 0 360 80;" xml:space="preserve">
<style type="text/css">
	.st0{fill:#B49769;}
	.st1{fill:#282D46;}
</style>
<g>
	<g>
		<path class="st0" d="M21.1,40.7c-0.3,0-0.4,0.1-0.5,0.4l-2.9,7.7c-0.5,1.4-0.8,2.6-0.8,3.3c0,1,0.5,1.7,2.2,1.7h0.8
			c0.6,0,0.8,0.1,0.8,0.4c0,0.4-0.3,0.5-0.9,0.5c-1.7,0-4-0.2-5.7-0.2c-0.6,0-3.6,0.2-6.4,0.2c-0.7,0-1-0.1-1-0.5
			c0-0.3,0.2-0.4,0.6-0.4c0.5,0,1.2-0.1,1.7-0.1c2.5-0.3,3.5-2.2,4.6-4.9l13.6-33.9c0.6-1.6,1-2.2,1.5-2.2c0.5,0,0.8,0.5,1.4,1.7
			c1.3,3,9.9,25,13.4,33.2c2.1,4.9,3.6,5.6,4.8,5.9c0.8,0.2,1.6,0.2,2.3,0.2c0.4,0,0.7,0.1,0.7,0.4c0,0.4-0.5,0.5-2.5,0.5
			c-1.9,0-5.9,0-10.2-0.1c-1-0.1-1.6-0.1-1.6-0.4c0-0.3,0.2-0.4,0.8-0.5c0.4-0.1,0.8-0.6,0.5-1.2L33.6,41c-0.1-0.3-0.3-0.4-0.5-0.4
			H21.1z M32.1,38c0.3,0,0.3-0.2,0.3-0.3l-4.9-13.3c-0.1-0.2-0.1-0.5-0.3-0.5s-0.3,0.3-0.3,0.5l-5,13.3c-0.1,0.2,0,0.4,0.2,0.4H32.1
			z"/>
		<path class="st0" d="M57,47.4c0.1,4.2,0.8,5.6,1.9,6c0.9,0.3,1.9,0.4,2.8,0.4c0.6,0,0.9,0.1,0.9,0.4c0,0.4-0.5,0.5-1.2,0.5
			c-3.5,0-5.7-0.2-6.7-0.2c-0.5,0-3,0.2-5.8,0.2c-0.7,0-1.2-0.1-1.2-0.5c0-0.3,0.3-0.4,0.9-0.4c0.7,0,1.7-0.1,2.4-0.3
			c1.4-0.4,1.6-2,1.7-6.7l0.5-32c0-1.1,0.2-1.8,0.7-1.8c0.6,0,1.1,0.7,2,1.7c0.6,0.7,8.9,9.5,16.7,17.3c3.7,3.7,11,11.4,11.9,12.3
			h0.3l-0.5-24.2c-0.1-3.3-0.5-4.3-1.8-4.9c-0.8-0.3-2.1-0.3-2.9-0.3c-0.6,0-0.9-0.2-0.9-0.5c0-0.4,0.6-0.5,1.4-0.5
			c2.8,0,5.4,0.2,6.5,0.2c0.6,0,2.6-0.2,5.3-0.2c0.7,0,1.2,0.1,1.2,0.5c0,0.3-0.3,0.5-1,0.5c-0.5,0-1,0-1.6,0.2
			c-1.5,0.4-1.9,1.6-2,4.6l-0.6,34.1c0,1.2-0.2,1.7-0.7,1.7c-0.6,0-1.2-0.6-1.8-1.2C82,51,75.1,43.9,69.4,38.3
			c-5.9-5.8-11.9-12.6-12.9-13.6h-0.2L57,47.4z"/>
		<path class="st0" d="M102.4,29.6c0-8.2,0-9.7-0.1-11.4c-0.1-1.8-0.5-2.7-2.3-3.1c-0.4-0.1-1.4-0.2-2.1-0.2c-0.6,0-0.9-0.1-0.9-0.5
			s0.4-0.5,1.2-0.5c2.9,0,6.3,0.2,7.8,0.2c1.7,0,5.1-0.2,8.3-0.2c6.8,0,15.8,0,21.7,6.2c2.7,2.8,5.2,7.3,5.2,13.7
			c0,6.8-2.9,12-5.9,15.1c-2.5,2.5-8.1,6.4-18.1,6.4c-1.9,0-4.2-0.2-6.2-0.3c-2.1-0.2-3.9-0.3-5.3-0.3c-0.6,0-1.8,0-3.1,0.1
			c-1.2,0-2.6,0.1-3.7,0.1c-0.7,0-1.1-0.2-1.1-0.5c0-0.3,0.2-0.4,0.9-0.4c0.8,0,1.5-0.1,1.9-0.2c1.1-0.2,1.4-1.4,1.6-3
			c0.3-2.3,0.3-6.5,0.3-11.5V29.6z M109.2,35.5c0,5.7,0.1,9.9,0.1,10.9c0.1,1.4,0.2,3.5,0.6,4.1c0.7,1,2.8,2.2,7.1,2.2
			c5.5,0,9.2-1.1,12.4-3.9c3.5-3,4.5-7.9,4.5-13.4c0-6.9-2.9-11.3-5.2-13.5c-5-4.8-11.1-5.4-15.3-5.4c-1.1,0-3.1,0.2-3.5,0.4
			c-0.5,0.2-0.6,0.5-0.6,1.1c-0.1,1.8-0.1,6.5-0.1,10.8V35.5z"/>
		<path class="st0" d="M149.7,29.6c0-8.2,0-9.7-0.1-11.4c-0.1-1.8-0.5-2.7-2.3-3.1c-0.4-0.1-1.4-0.2-2.1-0.2c-0.6,0-0.9-0.1-0.9-0.5
			s0.4-0.5,1.2-0.5c2.9,0,6.3,0.2,7.4,0.2c1.8,0,5.9-0.2,7.6-0.2c3.4,0,7,0.3,9.9,2.3c1.5,1,3.7,3.8,3.7,7.4c0,4-1.7,7.7-7.1,12.1
			c4.8,6,8.5,10.9,11.7,14.2c3,3.1,5.2,3.5,6,3.7c0.6,0.1,1.1,0.2,1.5,0.2s0.6,0.2,0.6,0.4c0,0.4-0.4,0.5-1,0.5h-5.1
			c-3,0-4.4-0.3-5.8-1c-2.3-1.2-4.4-3.8-7.4-7.9c-2.2-3-4.6-6.6-5.3-7.5c-0.3-0.3-0.6-0.4-1-0.4l-4.7-0.1c-0.3,0-0.4,0.1-0.4,0.4V39
			c0,5,0,9.3,0.3,11.6c0.2,1.6,0.5,2.8,2.1,3c0.8,0.1,2,0.2,2.6,0.2c0.4,0,0.6,0.2,0.6,0.4c0,0.4-0.4,0.5-1.1,0.5
			c-3.1,0-7.1-0.2-7.9-0.2c-1,0-4.4,0.2-6.6,0.2c-0.7,0-1.1-0.2-1.1-0.5c0-0.3,0.2-0.4,0.9-0.4c0.8,0,1.5-0.1,1.9-0.2
			c1.1-0.2,1.4-1.4,1.6-3c0.3-2.3,0.3-6.5,0.3-11.5V29.6z M156.1,33.9c0,0.6,0.1,0.8,0.5,1c1.1,0.4,2.8,0.5,4.1,0.5
			c2.2,0,2.9-0.2,3.8-0.9c1.6-1.2,3.2-3.7,3.2-8.1c0-7.7-5.1-9.9-8.3-9.9c-1.4,0-2.3,0.1-2.9,0.2c-0.4,0.1-0.5,0.3-0.5,0.8V33.9z"/>
		<path class="st0" d="M187.8,29.6c0-8.2,0-9.7-0.1-11.4c-0.1-1.8-0.5-2.7-2.3-3.1c-0.4-0.1-1.4-0.2-2.1-0.2c-0.6,0-0.9-0.1-0.9-0.5
			s0.4-0.5,1.2-0.5c1.5,0,3,0.1,4.4,0.1c1.4,0.1,2.6,0.1,3.4,0.1c1.7,0,12.5,0,13.5-0.1c1-0.1,1.9-0.2,2.3-0.3
			c0.3-0.1,0.6-0.2,0.9-0.2c0.3,0,0.3,0.2,0.3,0.5c0,0.4-0.3,1-0.4,3.5c-0.1,0.5-0.2,2.9-0.3,3.6c-0.1,0.3-0.2,0.6-0.5,0.6
			s-0.5-0.3-0.5-0.8c0-0.4-0.1-1.3-0.3-1.9c-0.4-1-0.9-1.6-3.6-1.9c-0.9-0.1-6.6-0.2-7.7-0.2c-0.3,0-0.4,0.2-0.4,0.5V31
			c0,0.4,0.1,0.6,0.4,0.6c1.2,0,7.4,0,8.6-0.1c1.3-0.1,2.1-0.3,2.6-0.8c0.4-0.4,0.6-0.7,0.9-0.7c0.2,0,0.4,0.1,0.4,0.4
			s-0.2,1.2-0.4,3.9c-0.1,1.1-0.2,3.2-0.2,3.6c0,0.4,0,1-0.5,1c-0.4,0-0.5-0.2-0.5-0.5c-0.1-0.5-0.1-1.2-0.2-1.9
			c-0.3-1.1-1-1.9-3-2.1c-1-0.1-6.4-0.2-7.7-0.2c-0.3,0-0.3,0.2-0.3,0.5v4.3c0,1.8-0.1,6.8,0,8.4c0.1,3.7,1,4.5,6.5,4.5
			c1.4,0,3.7,0,5.1-0.6c1.4-0.6,2.1-1.8,2.4-4c0.1-0.6,0.2-0.8,0.6-0.8c0.4,0,0.4,0.4,0.4,1c0,1.2-0.4,4.9-0.7,6
			c-0.4,1.4-0.9,1.4-2.9,1.4c-4.1,0-7-0.1-9.3-0.2c-2.3-0.1-4-0.2-5.6-0.2c-0.6,0-1.8,0-3.1,0.1c-1.2,0-2.6,0.1-3.7,0.1
			c-0.7,0-1.1-0.2-1.1-0.5c0-0.3,0.2-0.4,0.9-0.4c0.8,0,1.5-0.1,1.9-0.2c1.1-0.2,1.4-1.4,1.6-3c0.3-2.3,0.3-6.5,0.3-11.5V29.6z
			 M205.5,5.4c0.3,0.6,0,0.8-0.3,0.8c-0.3,0-0.8-0.1-1.8,0c-3,0.4-7.2,2.1-9.2,3.2c-0.4,0.2-0.8,0.4-0.9,0.4c-0.1,0-0.3-0.1-0.3-0.3
			c0-0.2,0.2-0.4,0.5-0.7c2.2-2.1,7.8-6.3,8.7-6.8c0.5-0.4,0.9-0.5,1.1-0.5c0.4,0,0.5,0.2,0.8,0.6C204.3,2.9,204.8,3.9,205.5,5.4z"
			/>
		<path class="st0" d="M232.7,29.6c0-8.2,0-9.7-0.1-11.4c-0.1-1.8-0.5-2.7-2.3-3.1c-0.4-0.1-1.3-0.2-2.1-0.2c-0.6,0-0.9-0.1-0.9-0.5
			s0.4-0.5,1.2-0.5c2.9,0,6.3,0.2,7.4,0.2c1.8,0,5.9-0.2,7.6-0.2c3.4,0,7,0.3,9.9,2.3c1.5,1,3.7,3.8,3.7,7.4c0,4-1.7,7.7-7.1,12.1
			c4.8,6,8.5,10.9,11.7,14.2c3,3.1,5.2,3.5,6,3.7c0.6,0.1,1.1,0.2,1.5,0.2c0.4,0,0.6,0.2,0.6,0.4c0,0.4-0.4,0.5-1,0.5h-5.1
			c-3,0-4.4-0.3-5.8-1c-2.3-1.2-4.4-3.8-7.4-7.9c-2.2-3-4.6-6.6-5.3-7.5c-0.3-0.3-0.6-0.4-1-0.4l-4.7-0.1c-0.3,0-0.4,0.1-0.4,0.4V39
			c0,5,0,9.3,0.3,11.6c0.2,1.6,0.5,2.8,2.1,3c0.8,0.1,2,0.2,2.6,0.2c0.4,0,0.6,0.2,0.6,0.4c0,0.4-0.4,0.5-1.1,0.5
			c-3.1,0-7.1-0.2-7.9-0.2c-1,0-4.4,0.2-6.6,0.2c-0.7,0-1.1-0.2-1.1-0.5c0-0.3,0.2-0.4,0.9-0.4c0.8,0,1.5-0.1,1.9-0.2
			c1.1-0.2,1.3-1.4,1.6-3c0.3-2.3,0.3-6.5,0.3-11.5V29.6z M239.1,33.9c0,0.6,0.1,0.8,0.5,1c1.1,0.4,2.8,0.5,4.1,0.5
			c2.2,0,2.9-0.2,3.8-0.9c1.6-1.2,3.2-3.7,3.2-8.1c0-7.7-5.1-9.9-8.3-9.9c-1.3,0-2.3,0.1-2.9,0.2c-0.4,0.1-0.5,0.3-0.5,0.8V33.9z"/>
		<path class="st0" d="M270.8,29.6c0-8.2,0-9.7-0.1-11.4c-0.1-1.8-0.6-2.8-1.8-3c-0.6-0.2-1.3-0.2-1.9-0.2c-0.5,0-0.9-0.1-0.9-0.5
			c0-0.3,0.4-0.4,1.3-0.4c2.1,0,5.5,0.2,7,0.2c1.4,0,4.5-0.2,6.6-0.2c0.7,0,1.1,0.1,1.1,0.4c0,0.4-0.3,0.5-0.9,0.5s-1,0.1-1.6,0.2
			c-1.5,0.3-1.9,1.2-2,3.1c-0.1,1.7-0.1,3.2-0.1,11.4v9.5c0,5.2,0,9.5,0.2,11.8c0.2,1.5,0.5,2.4,2.2,2.6c0.8,0.1,1.9,0.2,2.8,0.2
			c0.6,0,0.9,0.2,0.9,0.4c0,0.4-0.4,0.5-1,0.5c-3.6,0-7-0.2-8.4-0.2c-1.2,0-4.6,0.2-6.8,0.2c-0.7,0-1.1-0.2-1.1-0.5
			c0-0.3,0.2-0.4,0.9-0.4c0.8,0,1.5-0.1,1.9-0.2c1.1-0.2,1.4-1.1,1.6-2.7c0.3-2.3,0.3-6.5,0.3-11.8V29.6z"/>
		<path class="st0" d="M292.5,29.6c0-8.2,0-9.7-0.1-11.4c-0.1-1.8-0.5-2.7-2.3-3.1c-0.4-0.1-1.3-0.2-2.1-0.2c-0.6,0-0.9-0.1-0.9-0.5
			s0.4-0.5,1.2-0.5c1.5,0,3,0.1,4.4,0.1c1.4,0.1,2.6,0.1,3.4,0.1c1.7,0,12.5,0,13.5-0.1c1-0.1,1.9-0.2,2.3-0.3
			c0.3-0.1,0.6-0.2,0.9-0.2c0.3,0,0.3,0.2,0.3,0.5c0,0.4-0.3,1-0.4,3.5c-0.1,0.5-0.2,2.9-0.3,3.6c-0.1,0.3-0.2,0.6-0.5,0.6
			s-0.5-0.3-0.5-0.8c0-0.4-0.1-1.3-0.3-1.9c-0.4-1-0.9-1.6-3.6-1.9c-0.9-0.1-6.6-0.2-7.7-0.2c-0.3,0-0.4,0.2-0.4,0.5V31
			c0,0.4,0.1,0.6,0.4,0.6c1.2,0,7.4,0,8.6-0.1c1.3-0.1,2.1-0.3,2.6-0.8c0.4-0.4,0.6-0.7,0.9-0.7c0.2,0,0.4,0.1,0.4,0.4
			s-0.2,1.2-0.4,3.9c-0.1,1.1-0.2,3.2-0.2,3.6c0,0.4,0,1-0.5,1c-0.4,0-0.5-0.2-0.5-0.5c-0.1-0.5-0.1-1.2-0.2-1.9
			c-0.3-1.1-1-1.9-3-2.1c-1-0.1-6.4-0.2-7.7-0.2c-0.3,0-0.3,0.2-0.3,0.5v4.3c0,1.8-0.1,6.8,0,8.4c0.1,3.7,1,4.5,6.5,4.5
			c1.4,0,3.7,0,5.1-0.6c1.4-0.6,2.1-1.8,2.4-4c0.1-0.6,0.2-0.8,0.6-0.8c0.4,0,0.4,0.4,0.4,1c0,1.2-0.4,4.9-0.7,6
			c-0.4,1.4-0.9,1.4-2.9,1.4c-4.1,0-7-0.1-9.3-0.2c-2.3-0.1-4-0.2-5.6-0.2c-0.6,0-1.8,0-3.1,0.1c-1.2,0-2.6,0.1-3.7,0.1
			c-0.7,0-1.1-0.2-1.1-0.5c0-0.3,0.2-0.4,0.9-0.4c0.8,0,1.5-0.1,1.9-0.2c1.1-0.2,1.3-1.4,1.6-3c0.3-2.3,0.3-6.5,0.3-11.5V29.6z"/>
		<path class="st0" d="M321.6,29.6c0-8.2,0-9.7-0.1-11.4c-0.1-1.8-0.5-2.7-2.3-3.1c-0.4-0.1-1.4-0.2-2.1-0.2c-0.6,0-0.9-0.1-0.9-0.5
			s0.4-0.5,1.2-0.5c2.9,0,6.3,0.2,7.9,0.2c1.3,0,4.7-0.2,6.6-0.2c0.8,0,1.2,0.1,1.2,0.5s-0.3,0.5-0.9,0.5c-0.6,0-0.9,0.1-1.6,0.2
			c-1.5,0.3-1.9,1.2-2,3.1c-0.1,1.7-0.1,3.2-0.1,11.4v7.6c0,7.8,1.6,11.1,4.2,13.3c2.4,2,4.9,2.2,6.8,2.2c2.4,0,5.3-0.8,7.5-2.9
			c3-3,3.1-7.8,3.1-13.4v-6.8c0-8.2,0-9.7-0.1-11.4c-0.1-1.8-0.5-2.7-2.3-3.1c-0.4-0.1-1.3-0.2-1.9-0.2c-0.6,0-0.9-0.1-0.9-0.5
			s0.4-0.5,1.1-0.5c2.8,0,6.2,0.2,6.2,0.2c0.6,0,4-0.2,6.2-0.2c0.8,0,1.1,0.1,1.1,0.5s-0.3,0.5-1,0.5c-0.6,0-0.9,0.1-1.6,0.2
			c-1.5,0.3-1.9,1.2-2,3.1c-0.1,1.7-0.1,3.2-0.1,11.4v5.8c0,6-0.6,12.4-5.1,16.3c-3.8,3.3-7.7,3.9-11.2,3.9c-2.9,0-8-0.2-12-3.7
			c-2.8-2.5-4.8-6.5-4.8-14.3V29.6z"/>
	</g>
	<g>
		<path class="st1" d="M13.9,72.2c-0.1,0-0.1,0-0.1,0.1l-0.8,2c-0.1,0.4-0.2,0.7-0.2,0.9c0,0.3,0.1,0.4,0.6,0.4h0.2
			c0.2,0,0.2,0,0.2,0.1c0,0.1-0.1,0.1-0.2,0.1c-0.4,0-1.1,0-1.5,0c-0.2,0-0.9,0-1.7,0c-0.2,0-0.3,0-0.3-0.1c0-0.1,0.1-0.1,0.2-0.1
			c0.1,0,0.3,0,0.4,0c0.6-0.1,0.9-0.6,1.2-1.3l3.5-8.8c0.2-0.4,0.3-0.6,0.4-0.6c0.1,0,0.2,0.1,0.4,0.4c0.3,0.8,2.6,6.5,3.5,8.6
			c0.5,1.3,0.9,1.5,1.2,1.5c0.2,0,0.4,0.1,0.6,0.1c0.1,0,0.2,0,0.2,0.1c0,0.1-0.1,0.1-0.6,0.1c-0.5,0-1.5,0-2.6,0
			c-0.3,0-0.4,0-0.4-0.1c0-0.1,0.1-0.1,0.2-0.1c0.1,0,0.2-0.2,0.1-0.3l-1.1-3c0-0.1-0.1-0.1-0.1-0.1H13.9z M16.8,71.5
			C16.8,71.5,16.8,71.5,16.8,71.5L15.6,68c0-0.1,0-0.1-0.1-0.1s-0.1,0.1-0.1,0.1l-1.3,3.4c0,0.1,0,0.1,0.1,0.1H16.8z"/>
		<path class="st1" d="M24.9,74c0,1.1,0.2,1.5,0.5,1.6c0.2,0.1,0.5,0.1,0.7,0.1c0.2,0,0.2,0,0.2,0.1c0,0.1-0.1,0.1-0.3,0.1
			c-0.9,0-1.5,0-1.7,0c-0.1,0-0.8,0-1.5,0c-0.2,0-0.3,0-0.3-0.1c0-0.1,0.1-0.1,0.2-0.1c0.2,0,0.4,0,0.6-0.1c0.4-0.1,0.4-0.5,0.4-1.7
			l0.1-8.3c0-0.3,0-0.5,0.2-0.5c0.2,0,0.3,0.2,0.5,0.4c0.2,0.2,2.3,2.5,4.3,4.5c1,1,2.8,3,3.1,3.2h0.1l-0.1-6.3
			c0-0.9-0.1-1.1-0.5-1.3c-0.2-0.1-0.5-0.1-0.7-0.1c-0.2,0-0.2,0-0.2-0.1c0-0.1,0.2-0.1,0.4-0.1c0.7,0,1.4,0,1.7,0
			c0.2,0,0.7,0,1.4,0c0.2,0,0.3,0,0.3,0.1c0,0.1-0.1,0.1-0.3,0.1c-0.1,0-0.3,0-0.4,0c-0.4,0.1-0.5,0.4-0.5,1.2l-0.2,8.8
			c0,0.3-0.1,0.4-0.2,0.4c-0.2,0-0.3-0.2-0.5-0.3c-0.9-0.8-2.7-2.7-4.1-4.1c-1.5-1.5-3.1-3.3-3.3-3.5h0L24.9,74z"/>
		<path class="st1" d="M38.4,69.3c0-2.1,0-2.5,0-3c0-0.5-0.1-0.7-0.6-0.8c-0.1,0-0.4,0-0.5,0c-0.2,0-0.2,0-0.2-0.1
			c0-0.1,0.1-0.1,0.3-0.1c0.7,0,1.6,0,2,0c0.4,0,1.3,0,2.2,0c1.8,0,4.1,0,5.6,1.6c0.7,0.7,1.4,1.9,1.4,3.6c0,1.8-0.7,3.1-1.5,3.9
			C46.2,75,44.8,76,42.2,76c-0.5,0-1.1,0-1.6-0.1s-1-0.1-1.4-0.1c-0.2,0-0.5,0-0.8,0c-0.3,0-0.7,0-1,0c-0.2,0-0.3,0-0.3-0.1
			c0-0.1,0.1-0.1,0.2-0.1c0.2,0,0.4,0,0.5-0.1c0.3-0.1,0.4-0.4,0.4-0.8c0.1-0.6,0.1-1.7,0.1-3V69.3z M40.1,70.9c0,1.5,0,2.6,0,2.8
			c0,0.4,0,0.9,0.2,1.1c0.2,0.3,0.7,0.6,1.8,0.6c1.4,0,2.4-0.3,3.2-1c0.9-0.8,1.2-2,1.2-3.5c0-1.8-0.7-2.9-1.3-3.5
			c-1.3-1.2-2.9-1.4-4-1.4c-0.3,0-0.8,0-0.9,0.1c-0.1,0.1-0.2,0.1-0.2,0.3c0,0.5,0,1.7,0,2.8V70.9z"/>
		<path class="st1" d="M64.8,69.7C64.8,69.7,64.9,69.7,64.8,69.7l0.1-0.4c0-2.1,0-2.5,0-3c0-0.5-0.1-0.7-0.6-0.8c-0.1,0-0.4,0-0.5,0
			c-0.2,0-0.2,0-0.2-0.1c0-0.1,0.1-0.1,0.3-0.1c0.8,0,1.6,0,2,0c0.3,0,1.2,0,1.8,0c0.2,0,0.3,0,0.3,0.1c0,0.1-0.1,0.1-0.3,0.1
			c-0.1,0-0.2,0-0.4,0c-0.4,0.1-0.5,0.3-0.5,0.8c0,0.4,0,0.8,0,3v2.5c0,1.3,0,2.4,0.1,3c0,0.4,0.1,0.7,0.5,0.8
			c0.2,0,0.5,0.1,0.7,0.1c0.2,0,0.2,0,0.2,0.1c0,0.1-0.1,0.1-0.3,0.1c-0.9,0-1.8,0-2.2,0c-0.3,0-1.2,0-1.8,0c-0.2,0-0.3,0-0.3-0.1
			c0-0.1,0.1-0.1,0.2-0.1c0.2,0,0.4,0,0.5-0.1c0.3-0.1,0.4-0.4,0.4-0.8c0.1-0.6,0.1-1.7,0.1-3v-1.2c0-0.1,0-0.1-0.1-0.1h-5.4
			c0,0-0.1,0-0.1,0.1v1.2c0,1.3,0,2.4,0.1,3c0,0.4,0.1,0.7,0.5,0.8c0.2,0,0.5,0.1,0.7,0.1c0.2,0,0.2,0,0.2,0.1
			c0,0.1-0.1,0.1-0.3,0.1c-0.9,0-1.8,0-2.2,0c-0.3,0-1.2,0-1.8,0c-0.2,0-0.3,0-0.3-0.1c0-0.1,0.1-0.1,0.2-0.1c0.2,0,0.4,0,0.5-0.1
			c0.3-0.1,0.4-0.4,0.4-0.8c0.1-0.6,0.1-1.7,0.1-3v-2.5c0-2.1,0-2.5,0-3c0-0.5-0.1-0.7-0.6-0.8c-0.1,0-0.4,0-0.5,0
			c-0.2,0-0.2,0-0.2-0.1c0-0.1,0.1-0.1,0.3-0.1c0.8,0,1.6,0,2,0c0.3,0,1.2,0,1.8,0c0.2,0,0.3,0,0.3,0.1c0,0.1-0.1,0.1-0.3,0.1
			c-0.1,0-0.2,0-0.4,0c-0.4,0.1-0.5,0.3-0.5,0.8c0,0.4,0,0.8,0,3v0.3c0,0.1,0,0.1,0.1,0.1H64.8z"/>
		<path class="st1" d="M72.2,69.3c0-2.1,0-2.5,0-3c0-0.5-0.2-0.7-0.5-0.8c-0.2,0-0.3-0.1-0.5-0.1c-0.1,0-0.2,0-0.2-0.1
			c0-0.1,0.1-0.1,0.3-0.1c0.5,0,1.4,0,1.8,0c0.4,0,1.2,0,1.7,0c0.2,0,0.3,0,0.3,0.1c0,0.1-0.1,0.1-0.2,0.1c-0.1,0-0.3,0-0.4,0
			c-0.4,0.1-0.5,0.3-0.5,0.8c0,0.4,0,0.8,0,3v2.5c0,1.4,0,2.5,0.1,3.1c0,0.4,0.1,0.6,0.6,0.7c0.2,0,0.5,0.1,0.7,0.1
			c0.2,0,0.2,0,0.2,0.1c0,0.1-0.1,0.1-0.3,0.1c-0.9,0-1.8,0-2.2,0c-0.3,0-1.2,0-1.8,0c-0.2,0-0.3,0-0.3-0.1c0-0.1,0.1-0.1,0.2-0.1
			c0.2,0,0.4,0,0.5-0.1c0.3-0.1,0.4-0.3,0.4-0.7c0.1-0.6,0.1-1.7,0.1-3.1V69.3z"/>
		<path class="st1" d="M78.7,75.7c-0.2-0.1-0.3-0.2-0.3-0.5c0-0.8,0.1-1.6,0.1-1.8c0-0.2,0.1-0.4,0.2-0.4c0.1,0,0.1,0.1,0.1,0.2
			c0,0.2,0.1,0.5,0.1,0.7c0.3,1,1.1,1.4,2,1.4c1.3,0,1.9-0.9,1.9-1.6c0-0.7-0.2-1.3-1.4-2.2l-0.6-0.5c-1.5-1.2-2.1-2.2-2.1-3.3
			c0-1.5,1.3-2.6,3.2-2.6c0.9,0,1.5,0.1,1.9,0.2c0.1,0,0.2,0.1,0.2,0.2c0,0.2-0.1,0.6-0.1,1.7c0,0.3,0,0.4-0.2,0.4
			c-0.1,0-0.1-0.1-0.1-0.3c0-0.1-0.1-0.6-0.4-0.9c-0.2-0.3-0.6-0.7-1.5-0.7c-1,0-1.7,0.6-1.7,1.4c0,0.6,0.3,1.1,1.5,2l0.4,0.3
			c1.7,1.3,2.3,2.2,2.3,3.6c0,0.8-0.3,1.8-1.3,2.4c-0.7,0.4-1.5,0.6-2.2,0.6C80,76.1,79.3,76,78.7,75.7z"/>
		<path class="st1" d="M93.8,69.3c0-2.1,0-2.5,0-3c0-0.5-0.1-0.7-0.6-0.8c-0.1,0-0.4,0-0.5,0c-0.2,0-0.2,0-0.2-0.1
			c0-0.1,0.1-0.1,0.3-0.1c0.7,0,1.6,0,2,0c0.3,0,1.2,0,1.8,0c0.2,0,0.3,0,0.3,0.1c0,0.1-0.1,0.1-0.3,0.1c-0.2,0-0.2,0-0.4,0
			c-0.4,0.1-0.5,0.3-0.5,0.8c0,0.4,0,0.8,0,3v2.6c0,0.6,0,1.3,0,2c0,0.8-0.1,1.7-0.3,2.5c-0.3,0.9-1,1.8-2.4,2.6
			c-0.2,0.1-0.4,0.2-0.7,0.4c-0.1,0.1-0.2,0.1-0.3,0.1c-0.1,0-0.1,0-0.1-0.1s0.1-0.1,0.3-0.3c0.2-0.1,0.4-0.3,0.7-0.5
			c1.1-1.1,1.1-2.5,1.1-5.2V69.3z"/>
		<path class="st1" d="M99,70.6c0-2.4,1.6-5.5,5.8-5.5c3.5,0,5.7,2,5.7,5.2s-2.2,5.7-5.8,5.7C100.6,76.1,99,73.1,99,70.6z
			 M108.4,70.8c0-3.1-1.8-5.1-4.1-5.1c-1.6,0-3.4,0.9-3.4,4.4c0,2.9,1.6,5.2,4.3,5.2C106.2,75.4,108.4,74.9,108.4,70.8z"/>
		<path class="st1" d="M121.5,69.7C121.5,69.7,121.6,69.7,121.5,69.7l0.1-0.4c0-2.1,0-2.5,0-3c0-0.5-0.1-0.7-0.6-0.8
			c-0.1,0-0.4,0-0.5,0c-0.2,0-0.2,0-0.2-0.1c0-0.1,0.1-0.1,0.3-0.1c0.8,0,1.6,0,2,0c0.3,0,1.2,0,1.8,0c0.2,0,0.3,0,0.3,0.1
			c0,0.1-0.1,0.1-0.3,0.1c-0.1,0-0.2,0-0.4,0c-0.4,0.1-0.5,0.3-0.5,0.8c0,0.4,0,0.8,0,3v2.5c0,1.3,0,2.4,0.1,3
			c0,0.4,0.1,0.7,0.5,0.8c0.2,0,0.5,0.1,0.7,0.1c0.2,0,0.2,0,0.2,0.1c0,0.1-0.1,0.1-0.3,0.1c-0.9,0-1.8,0-2.2,0c-0.3,0-1.2,0-1.8,0
			c-0.2,0-0.3,0-0.3-0.1c0-0.1,0.1-0.1,0.2-0.1c0.2,0,0.4,0,0.5-0.1c0.3-0.1,0.4-0.4,0.4-0.8c0.1-0.6,0.1-1.7,0.1-3v-1.2
			c0-0.1,0-0.1-0.1-0.1h-5.4c0,0-0.1,0-0.1,0.1v1.2c0,1.3,0,2.4,0.1,3c0,0.4,0.1,0.7,0.5,0.8c0.2,0,0.5,0.1,0.7,0.1
			c0.2,0,0.2,0,0.2,0.1c0,0.1-0.1,0.1-0.3,0.1c-0.9,0-1.8,0-2.2,0c-0.3,0-1.2,0-1.8,0c-0.2,0-0.3,0-0.3-0.1c0-0.1,0.1-0.1,0.2-0.1
			c0.2,0,0.4,0,0.5-0.1c0.3-0.1,0.4-0.4,0.4-0.8c0.1-0.6,0.1-1.7,0.1-3v-2.5c0-2.1,0-2.5,0-3c0-0.5-0.1-0.7-0.6-0.8
			c-0.1,0-0.4,0-0.5,0c-0.2,0-0.2,0-0.2-0.1c0-0.1,0.1-0.1,0.3-0.1c0.8,0,1.6,0,2,0c0.3,0,1.2,0,1.8,0c0.2,0,0.3,0,0.3,0.1
			c0,0.1-0.1,0.1-0.3,0.1c-0.1,0-0.2,0-0.4,0c-0.4,0.1-0.5,0.3-0.5,0.8c0,0.4,0,0.8,0,3v0.3c0,0.1,0,0.1,0.1,0.1H121.5z"/>
		<path class="st1" d="M129.5,72.2c-0.1,0-0.1,0-0.1,0.1l-0.8,2c-0.1,0.4-0.2,0.7-0.2,0.9c0,0.3,0.1,0.4,0.6,0.4h0.2
			c0.2,0,0.2,0,0.2,0.1c0,0.1-0.1,0.1-0.2,0.1c-0.4,0-1.1,0-1.5,0c-0.2,0-0.9,0-1.7,0c-0.2,0-0.3,0-0.3-0.1c0-0.1,0.1-0.1,0.2-0.1
			c0.1,0,0.3,0,0.4,0c0.6-0.1,0.9-0.6,1.2-1.3l3.5-8.8c0.2-0.4,0.3-0.6,0.4-0.6c0.1,0,0.2,0.1,0.4,0.4c0.3,0.8,2.6,6.5,3.5,8.6
			c0.5,1.3,0.9,1.5,1.2,1.5c0.2,0,0.4,0.1,0.6,0.1c0.1,0,0.2,0,0.2,0.1c0,0.1-0.1,0.1-0.6,0.1c-0.5,0-1.5,0-2.6,0
			c-0.3,0-0.4,0-0.4-0.1c0-0.1,0.1-0.1,0.2-0.1c0.1,0,0.2-0.2,0.1-0.3l-1.1-3c0-0.1-0.1-0.1-0.1-0.1H129.5z M132.3,71.5
			C132.4,71.5,132.4,71.5,132.3,71.5l-1.2-3.5c0-0.1,0-0.1-0.1-0.1S131,67.9,131,68l-1.3,3.4c0,0.1,0,0.1,0.1,0.1H132.3z"/>
		<path class="st1" d="M140.5,74c0,1.1,0.2,1.5,0.5,1.6c0.2,0.1,0.5,0.1,0.7,0.1c0.2,0,0.2,0,0.2,0.1c0,0.1-0.1,0.1-0.3,0.1
			c-0.9,0-1.5,0-1.7,0c-0.1,0-0.8,0-1.5,0c-0.2,0-0.3,0-0.3-0.1c0-0.1,0.1-0.1,0.2-0.1c0.2,0,0.4,0,0.6-0.1c0.4-0.1,0.4-0.5,0.4-1.7
			l0.1-8.3c0-0.3,0-0.5,0.2-0.5c0.2,0,0.3,0.2,0.5,0.4c0.2,0.2,2.3,2.5,4.3,4.5c1,1,2.8,3,3.1,3.2h0.1l-0.1-6.3
			c0-0.9-0.1-1.1-0.5-1.3c-0.2-0.1-0.5-0.1-0.7-0.1c-0.2,0-0.2,0-0.2-0.1c0-0.1,0.2-0.1,0.4-0.1c0.7,0,1.4,0,1.7,0
			c0.2,0,0.7,0,1.4,0c0.2,0,0.3,0,0.3,0.1c0,0.1-0.1,0.1-0.3,0.1c-0.1,0-0.3,0-0.4,0c-0.4,0.1-0.5,0.4-0.5,1.2l-0.2,8.8
			c0,0.3-0.1,0.4-0.2,0.4c-0.2,0-0.3-0.2-0.5-0.3c-0.9-0.8-2.7-2.7-4.1-4.1c-1.5-1.5-3.1-3.3-3.3-3.5h0L140.5,74z"/>
		<path class="st1" d="M154.7,74c0,1.1,0.2,1.5,0.5,1.6c0.2,0.1,0.5,0.1,0.7,0.1c0.2,0,0.2,0,0.2,0.1c0,0.1-0.1,0.1-0.3,0.1
			c-0.9,0-1.5,0-1.7,0c-0.1,0-0.8,0-1.5,0c-0.2,0-0.3,0-0.3-0.1c0-0.1,0.1-0.1,0.2-0.1c0.2,0,0.4,0,0.6-0.1c0.4-0.1,0.4-0.5,0.4-1.7
			l0.1-8.3c0-0.3,0-0.5,0.2-0.5c0.2,0,0.3,0.2,0.5,0.4c0.2,0.2,2.3,2.5,4.3,4.5c1,1,2.8,3,3.1,3.2h0.1l-0.1-6.3
			c0-0.9-0.1-1.1-0.5-1.3c-0.2-0.1-0.5-0.1-0.7-0.1c-0.2,0-0.2,0-0.2-0.1c0-0.1,0.2-0.1,0.4-0.1c0.7,0,1.4,0,1.7,0
			c0.2,0,0.7,0,1.4,0c0.2,0,0.3,0,0.3,0.1c0,0.1-0.1,0.1-0.3,0.1c-0.1,0-0.3,0-0.4,0c-0.4,0.1-0.5,0.4-0.5,1.2l-0.2,8.8
			c0,0.3-0.1,0.4-0.2,0.4c-0.2,0-0.3-0.2-0.5-0.3c-0.9-0.8-2.7-2.7-4.1-4.1c-1.5-1.5-3.1-3.3-3.3-3.5h0L154.7,74z"/>
		<path class="st1" d="M172.6,75.7c-0.2-0.1-0.3-0.2-0.3-0.5c0-0.8,0.1-1.6,0.1-1.8c0-0.2,0.1-0.4,0.2-0.4c0.1,0,0.1,0.1,0.1,0.2
			c0,0.2,0.1,0.5,0.1,0.7c0.3,1,1.1,1.4,2,1.4c1.3,0,1.9-0.9,1.9-1.6c0-0.7-0.2-1.3-1.4-2.2l-0.6-0.5c-1.5-1.2-2.1-2.2-2.1-3.3
			c0-1.5,1.3-2.6,3.2-2.6c0.9,0,1.5,0.1,1.9,0.2c0.1,0,0.2,0.1,0.2,0.2c0,0.2-0.1,0.6-0.1,1.7c0,0.3,0,0.4-0.2,0.4
			c-0.1,0-0.1-0.1-0.1-0.3c0-0.1-0.1-0.6-0.4-0.9c-0.2-0.3-0.6-0.7-1.5-0.7c-1,0-1.7,0.6-1.7,1.4c0,0.6,0.3,1.1,1.5,2l0.4,0.3
			c1.7,1.3,2.3,2.2,2.3,3.6c0,0.8-0.3,1.8-1.3,2.4c-0.7,0.4-1.5,0.6-2.2,0.6C173.8,76.1,173.2,76,172.6,75.7z"/>
		<path class="st1" d="M184.3,66.1l-2.1,0.1c-0.8,0-1.1,0.1-1.4,0.4c-0.1,0.2-0.2,0.4-0.2,0.5c0,0.1-0.1,0.2-0.2,0.2
			c-0.1,0-0.1-0.1-0.1-0.2c0-0.2,0.3-1.5,0.3-1.6c0-0.2,0.1-0.3,0.2-0.3c0.1,0,0.3,0.1,0.6,0.2c0.4,0,0.9,0.1,1.4,0.1h5.5
			c0.4,0,0.8,0,1-0.1c0.2,0,0.3-0.1,0.4-0.1c0.1,0,0.1,0.1,0.1,0.3c0,0.3,0,1.3,0,1.6c0,0.1,0,0.2-0.1,0.2c-0.1,0-0.1-0.1-0.2-0.3
			l0-0.2c0-0.4-0.4-0.8-1.7-0.8l-1.8,0v5.7c0,1.3,0,2.4,0.1,3c0,0.4,0.1,0.7,0.5,0.8c0.2,0,0.5,0.1,0.7,0.1c0.2,0,0.2,0,0.2,0.1
			c0,0.1-0.1,0.1-0.3,0.1c-0.9,0-1.8,0-2.2,0c-0.3,0-1.2,0-1.8,0c-0.2,0-0.3,0-0.3-0.1c0-0.1,0.1-0.1,0.2-0.1c0.2,0,0.4,0,0.5-0.1
			c0.3-0.1,0.4-0.4,0.4-0.8c0.1-0.6,0.1-1.7,0.1-3V66.1z"/>
		<path class="st1" d="M193.4,69.3c0-2.1,0-2.5,0-3c0-0.5-0.1-0.7-0.6-0.8c-0.1,0-0.4,0-0.5,0c-0.2,0-0.2,0-0.2-0.1
			c0-0.1,0.1-0.1,0.3-0.1c0.7,0,1.6,0,1.9,0c0.5,0,1.5,0,2,0c0.9,0,1.8,0.1,2.6,0.6c0.4,0.3,1,1,1,1.9c0,1-0.4,2-1.8,3.1
			c1.2,1.6,2.2,2.8,3,3.7c0.8,0.8,1.4,0.9,1.6,1c0.2,0,0.3,0,0.4,0s0.2,0,0.2,0.1c0,0.1-0.1,0.1-0.3,0.1h-1.3
			c-0.8,0-1.1-0.1-1.5-0.3c-0.6-0.3-1.1-1-1.9-2.1c-0.6-0.8-1.2-1.7-1.4-1.9c-0.1-0.1-0.2-0.1-0.3-0.1l-1.2,0c-0.1,0-0.1,0-0.1,0.1
			v0.2c0,1.3,0,2.4,0.1,3c0,0.4,0.1,0.7,0.5,0.8c0.2,0,0.5,0.1,0.7,0.1c0.1,0,0.2,0,0.2,0.1c0,0.1-0.1,0.1-0.3,0.1
			c-0.8,0-1.8,0-2.1,0c-0.3,0-1.1,0-1.7,0c-0.2,0-0.3,0-0.3-0.1c0-0.1,0.1-0.1,0.2-0.1c0.2,0,0.4,0,0.5-0.1c0.3-0.1,0.3-0.4,0.4-0.8
			c0.1-0.6,0.1-1.7,0.1-3V69.3z M195,70.5c0,0.2,0,0.2,0.1,0.3c0.3,0.1,0.7,0.1,1.1,0.1c0.6,0,0.7-0.1,1-0.2c0.4-0.3,0.8-1,0.8-2.1
			c0-2-1.3-2.6-2.1-2.6c-0.3,0-0.6,0-0.7,0.1c-0.1,0-0.1,0.1-0.1,0.2V70.5z"/>
		<path class="st1" d="M205.5,72.2c-0.1,0-0.1,0-0.1,0.1l-0.8,2c-0.1,0.4-0.2,0.7-0.2,0.9c0,0.3,0.1,0.4,0.6,0.4h0.2
			c0.2,0,0.2,0,0.2,0.1c0,0.1-0.1,0.1-0.2,0.1c-0.4,0-1.1,0-1.5,0c-0.2,0-0.9,0-1.7,0c-0.2,0-0.3,0-0.3-0.1c0-0.1,0.1-0.1,0.2-0.1
			c0.1,0,0.3,0,0.4,0c0.6-0.1,0.9-0.6,1.2-1.3l3.5-8.8c0.2-0.4,0.3-0.6,0.4-0.6c0.1,0,0.2,0.1,0.4,0.4c0.3,0.8,2.6,6.5,3.5,8.6
			c0.5,1.3,0.9,1.5,1.2,1.5c0.2,0,0.4,0.1,0.6,0.1c0.1,0,0.2,0,0.2,0.1c0,0.1-0.1,0.1-0.6,0.1c-0.5,0-1.5,0-2.6,0
			c-0.3,0-0.4,0-0.4-0.1c0-0.1,0.1-0.1,0.2-0.1c0.1,0,0.2-0.2,0.1-0.3l-1.1-3c0-0.1-0.1-0.1-0.1-0.1H205.5z M208.3,71.5
			C208.4,71.5,208.4,71.5,208.3,71.5l-1.2-3.5c0-0.1,0-0.1-0.1-0.1S207,67.9,207,68l-1.3,3.4c0,0.1,0,0.1,0.1,0.1H208.3z"/>
		<path class="st1" d="M215,69.3c0-2.1,0-2.5,0-3c0-0.5-0.1-0.7-0.6-0.8c-0.1,0-0.3,0-0.5,0c-0.2,0-0.2,0-0.2-0.1
			c0-0.1,0.1-0.1,0.3-0.1c0.7,0,1.6,0,2,0c0.3,0,1.2,0,1.7,0c0.2,0,0.3,0,0.3,0.1c0,0.1-0.1,0.1-0.2,0.1c-0.2,0-0.2,0-0.4,0
			c-0.4,0.1-0.5,0.3-0.5,0.8c0,0.4,0,0.8,0,3v2c0,2,0.4,2.9,1.1,3.4c0.6,0.5,1.3,0.6,1.8,0.6c0.6,0,1.4-0.2,1.9-0.8
			c0.8-0.8,0.8-2,0.8-3.5v-1.8c0-2.1,0-2.5,0-3c0-0.5-0.1-0.7-0.6-0.8c-0.1,0-0.3,0-0.5,0s-0.2,0-0.2-0.1c0-0.1,0.1-0.1,0.3-0.1
			c0.7,0,1.6,0,1.6,0c0.2,0,1.1,0,1.6,0c0.2,0,0.3,0,0.3,0.1c0,0.1-0.1,0.1-0.3,0.1c-0.2,0-0.2,0-0.4,0c-0.4,0.1-0.5,0.3-0.5,0.8
			c0,0.4,0,0.8,0,3v1.5c0,1.6-0.2,3.2-1.3,4.2c-1,0.9-2,1-2.9,1c-0.7,0-2.1,0-3.1-1c-0.7-0.6-1.2-1.7-1.2-3.7V69.3z"/>
		<path class="st1" d="M227.8,75.7c-0.2-0.1-0.3-0.2-0.3-0.5c0-0.8,0.1-1.6,0.1-1.8c0-0.2,0.1-0.4,0.2-0.4c0.1,0,0.1,0.1,0.1,0.2
			c0,0.2,0.1,0.5,0.1,0.7c0.3,1,1.1,1.4,2,1.4c1.3,0,1.9-0.9,1.9-1.6c0-0.7-0.2-1.3-1.4-2.2l-0.6-0.5c-1.5-1.2-2.1-2.2-2.1-3.3
			c0-1.5,1.3-2.6,3.2-2.6c0.9,0,1.5,0.1,1.9,0.2c0.1,0,0.2,0.1,0.2,0.2c0,0.2-0.1,0.6-0.1,1.7c0,0.3,0,0.4-0.2,0.4
			c-0.1,0-0.1-0.1-0.1-0.3c0-0.1-0.1-0.6-0.4-0.9c-0.2-0.3-0.6-0.7-1.5-0.7c-1,0-1.7,0.6-1.7,1.4c0,0.6,0.3,1.1,1.5,2l0.4,0.3
			c1.7,1.3,2.3,2.2,2.3,3.6c0,0.8-0.3,1.8-1.3,2.4c-0.7,0.4-1.5,0.6-2.2,0.6C229,76.1,228.4,76,227.8,75.7z"/>
		<path class="st1" d="M236.9,75.7c-0.2-0.1-0.3-0.2-0.3-0.5c0-0.8,0.1-1.6,0.1-1.8c0-0.2,0.1-0.4,0.2-0.4c0.1,0,0.1,0.1,0.1,0.2
			c0,0.2,0.1,0.5,0.1,0.7c0.3,1,1.1,1.4,2,1.4c1.3,0,1.9-0.9,1.9-1.6c0-0.7-0.2-1.3-1.4-2.2l-0.6-0.5c-1.5-1.2-2.1-2.2-2.1-3.3
			c0-1.5,1.3-2.6,3.2-2.6c0.9,0,1.5,0.1,1.9,0.2c0.1,0,0.2,0.1,0.2,0.2c0,0.2-0.1,0.6-0.1,1.7c0,0.3,0,0.4-0.2,0.4
			c-0.1,0-0.1-0.1-0.1-0.3c0-0.1-0.1-0.6-0.4-0.9c-0.2-0.3-0.6-0.7-1.5-0.7c-1,0-1.7,0.6-1.7,1.4c0,0.6,0.3,1.1,1.5,2l0.4,0.3
			c1.7,1.3,2.3,2.2,2.3,3.6c0,0.8-0.3,1.8-1.3,2.4c-0.7,0.4-1.5,0.6-2.2,0.6C238.1,76.1,237.5,76,236.9,75.7z"/>
		<path class="st1" d="M250.5,70.6c0-2.4,1.6-5.5,5.8-5.5c3.5,0,5.7,2,5.7,5.2s-2.2,5.7-5.8,5.7C252.1,76.1,250.5,73.1,250.5,70.6z
			 M259.9,70.8c0-3.1-1.8-5.1-4.1-5.1c-1.6,0-3.4,0.9-3.4,4.4c0,2.9,1.6,5.2,4.3,5.2C257.7,75.4,259.9,74.9,259.9,70.8z"/>
		<path class="st1" d="M265.8,69.3c0-2.1,0-2.5,0-3c0-0.5-0.1-0.7-0.6-0.8c-0.1,0-0.4,0-0.5,0c-0.2,0-0.2,0-0.2-0.1
			c0-0.1,0.1-0.1,0.3-0.1c0.7,0,1.6,0,1.9,0c0.5,0,1.5,0,2,0c0.9,0,1.8,0.1,2.6,0.6c0.4,0.3,1,1,1,1.9c0,1-0.4,2-1.8,3.1
			c1.2,1.6,2.2,2.8,3,3.7c0.8,0.8,1.4,0.9,1.6,1c0.2,0,0.3,0,0.4,0c0.1,0,0.2,0,0.2,0.1c0,0.1-0.1,0.1-0.3,0.1h-1.3
			c-0.8,0-1.1-0.1-1.5-0.3c-0.6-0.3-1.1-1-1.9-2.1c-0.6-0.8-1.2-1.7-1.4-1.9c-0.1-0.1-0.2-0.1-0.3-0.1l-1.2,0c-0.1,0-0.1,0-0.1,0.1
			v0.2c0,1.3,0,2.4,0.1,3c0,0.4,0.1,0.7,0.5,0.8c0.2,0,0.5,0.1,0.7,0.1c0.1,0,0.2,0,0.2,0.1c0,0.1-0.1,0.1-0.3,0.1
			c-0.8,0-1.8,0-2.1,0c-0.3,0-1.1,0-1.7,0c-0.2,0-0.3,0-0.3-0.1c0-0.1,0.1-0.1,0.2-0.1c0.2,0,0.4,0,0.5-0.1c0.3-0.1,0.3-0.4,0.4-0.8
			c0.1-0.6,0.1-1.7,0.1-3V69.3z M267.4,70.5c0,0.2,0,0.2,0.1,0.3c0.3,0.1,0.7,0.1,1.1,0.1c0.6,0,0.7-0.1,1-0.2
			c0.4-0.3,0.8-1,0.8-2.1c0-2-1.3-2.6-2.1-2.6c-0.3,0-0.6,0-0.7,0.1c-0.1,0-0.1,0.1-0.1,0.2V70.5z"/>
		<path class="st1" d="M277.5,74.5c-1.4-1.2-1.7-2.8-1.7-4.1c0-1,0.3-2.6,1.6-3.8c1-0.9,2.3-1.5,4.4-1.5c0.9,0,1.4,0.1,2,0.1
			c0.5,0.1,1,0.2,1.4,0.2c0.2,0,0.2,0.1,0.2,0.2c0,0.1,0,0.3-0.1,0.8c0,0.5,0,1.2,0,1.5c0,0.2,0,0.3-0.2,0.3c-0.1,0-0.1-0.1-0.1-0.3
			c0-0.4-0.2-0.9-0.5-1.3c-0.5-0.5-1.6-0.9-2.8-0.9c-1.2,0-2,0.3-2.6,0.9c-1,0.9-1.3,2.3-1.3,3.6c0,3.3,2.5,5,4.4,5
			c1.2,0,2-0.1,2.6-0.8c0.2-0.3,0.4-0.7,0.5-0.9c0-0.2,0.1-0.3,0.2-0.3c0.1,0,0.1,0.1,0.1,0.2c0,0.2-0.2,1.4-0.3,1.9
			c-0.1,0.2-0.1,0.3-0.4,0.4c-0.6,0.2-1.6,0.3-2.5,0.3C280.4,76.1,278.8,75.7,277.5,74.5z"/>
		<path class="st1" d="M296.6,69.7C296.7,69.7,296.7,69.7,296.6,69.7l0.1-0.4c0-2.1,0-2.5,0-3c0-0.5-0.1-0.7-0.6-0.8
			c-0.1,0-0.3,0-0.5,0c-0.2,0-0.2,0-0.2-0.1c0-0.1,0.1-0.1,0.3-0.1c0.8,0,1.6,0,2,0c0.3,0,1.2,0,1.8,0c0.2,0,0.3,0,0.3,0.1
			c0,0.1-0.1,0.1-0.3,0.1c-0.1,0-0.2,0-0.4,0c-0.4,0.1-0.5,0.3-0.5,0.8c0,0.4,0,0.8,0,3v2.5c0,1.3,0,2.4,0.1,3
			c0,0.4,0.1,0.7,0.5,0.8c0.2,0,0.5,0.1,0.7,0.1c0.2,0,0.2,0,0.2,0.1c0,0.1-0.1,0.1-0.3,0.1c-0.9,0-1.8,0-2.2,0c-0.3,0-1.2,0-1.8,0
			c-0.2,0-0.3,0-0.3-0.1c0-0.1,0.1-0.1,0.2-0.1c0.2,0,0.4,0,0.5-0.1c0.3-0.1,0.4-0.4,0.4-0.8c0.1-0.6,0.1-1.7,0.1-3v-1.2
			c0-0.1,0-0.1-0.1-0.1h-5.4c0,0-0.1,0-0.1,0.1v1.2c0,1.3,0,2.4,0.1,3c0,0.4,0.1,0.7,0.5,0.8c0.2,0,0.5,0.1,0.7,0.1
			c0.2,0,0.2,0,0.2,0.1c0,0.1-0.1,0.1-0.3,0.1c-0.9,0-1.8,0-2.2,0c-0.3,0-1.2,0-1.8,0c-0.2,0-0.3,0-0.3-0.1c0-0.1,0.1-0.1,0.2-0.1
			c0.2,0,0.4,0,0.5-0.1c0.3-0.1,0.3-0.4,0.4-0.8c0.1-0.6,0.1-1.7,0.1-3v-2.5c0-2.1,0-2.5,0-3c0-0.5-0.1-0.7-0.6-0.8
			c-0.1,0-0.4,0-0.5,0c-0.2,0-0.2,0-0.2-0.1c0-0.1,0.1-0.1,0.3-0.1c0.8,0,1.6,0,2,0c0.3,0,1.2,0,1.8,0c0.2,0,0.3,0,0.3,0.1
			c0,0.1-0.1,0.1-0.3,0.1c-0.1,0-0.2,0-0.4,0c-0.4,0.1-0.5,0.3-0.5,0.8c0,0.4,0,0.8,0,3v0.3c0,0.1,0,0.1,0.1,0.1H296.6z"/>
		<path class="st1" d="M304,69.3c0-2.1,0-2.5,0-3c0-0.5-0.1-0.7-0.6-0.8c-0.1,0-0.4,0-0.5,0c-0.2,0-0.2,0-0.2-0.1
			c0-0.1,0.1-0.1,0.3-0.1c0.4,0,0.8,0,1.1,0c0.4,0,0.7,0,0.9,0c0.4,0,3.2,0,3.5,0c0.3,0,0.5-0.1,0.6-0.1c0.1,0,0.2-0.1,0.2-0.1
			s0.1,0.1,0.1,0.1c0,0.1-0.1,0.3-0.1,0.9c0,0.1,0,0.8-0.1,0.9c0,0.1,0,0.2-0.1,0.2s-0.1-0.1-0.1-0.2c0-0.1,0-0.3-0.1-0.5
			c-0.1-0.3-0.2-0.4-0.9-0.5c-0.2,0-1.7-0.1-2-0.1c-0.1,0-0.1,0-0.1,0.1v3.5c0,0.1,0,0.2,0.1,0.2c0.3,0,1.9,0,2.2,0
			c0.3,0,0.5-0.1,0.7-0.2c0.1-0.1,0.2-0.2,0.2-0.2c0.1,0,0.1,0,0.1,0.1s-0.1,0.3-0.1,1c0,0.3-0.1,0.8-0.1,0.9c0,0.1,0,0.3-0.1,0.3
			c-0.1,0-0.1-0.1-0.1-0.1c0-0.1,0-0.3-0.1-0.5c-0.1-0.3-0.3-0.5-0.8-0.5c-0.3,0-1.7,0-2,0c-0.1,0-0.1,0.1-0.1,0.1v1.1
			c0,0.5,0,1.8,0,2.2c0,1,0.3,1.2,1.7,1.2c0.4,0,1,0,1.3-0.2c0.4-0.2,0.5-0.5,0.6-1c0-0.2,0.1-0.2,0.2-0.2c0.1,0,0.1,0.1,0.1,0.3
			c0,0.3-0.1,1.3-0.2,1.6c-0.1,0.4-0.2,0.4-0.8,0.4c-1.1,0-1.8,0-2.4,0c-0.6,0-1,0-1.5,0c-0.2,0-0.5,0-0.8,0c-0.3,0-0.7,0-1,0
			c-0.2,0-0.3,0-0.3-0.1c0-0.1,0.1-0.1,0.2-0.1c0.2,0,0.4,0,0.5-0.1c0.3-0.1,0.3-0.4,0.4-0.8c0.1-0.6,0.1-1.7,0.1-3V69.3z"/>
		<path class="st1" d="M313.1,75.7c-0.2-0.1-0.3-0.2-0.3-0.5c0-0.8,0.1-1.6,0.1-1.8c0-0.2,0.1-0.4,0.2-0.4c0.1,0,0.1,0.1,0.1,0.2
			c0,0.2,0.1,0.5,0.1,0.7c0.3,1,1.1,1.4,2,1.4c1.3,0,1.9-0.9,1.9-1.6c0-0.7-0.2-1.3-1.4-2.2l-0.6-0.5c-1.5-1.2-2.1-2.2-2.1-3.3
			c0-1.5,1.3-2.6,3.2-2.6c0.9,0,1.5,0.1,1.9,0.2c0.1,0,0.2,0.1,0.2,0.2c0,0.2-0.1,0.6-0.1,1.7c0,0.3,0,0.4-0.2,0.4
			c-0.1,0-0.1-0.1-0.1-0.3c0-0.1-0.1-0.6-0.4-0.9c-0.2-0.3-0.6-0.7-1.5-0.7c-1,0-1.7,0.6-1.7,1.4c0,0.6,0.3,1.1,1.5,2l0.4,0.3
			c1.7,1.3,2.3,2.2,2.3,3.6c0,0.8-0.3,1.8-1.3,2.4c-0.7,0.4-1.5,0.6-2.2,0.6C314.3,76.1,313.7,76,313.1,75.7z"/>
		<path class="st1" d="M324.9,66.1l-2.1,0.1c-0.8,0-1.1,0.1-1.4,0.4c-0.1,0.2-0.2,0.4-0.2,0.5c0,0.1-0.1,0.2-0.2,0.2
			c-0.1,0-0.1-0.1-0.1-0.2c0-0.2,0.3-1.5,0.3-1.6c0-0.2,0.1-0.3,0.2-0.3c0.1,0,0.3,0.1,0.6,0.2c0.4,0,0.9,0.1,1.4,0.1h5.5
			c0.4,0,0.8,0,1-0.1c0.2,0,0.3-0.1,0.4-0.1c0.1,0,0.1,0.1,0.1,0.3c0,0.3,0,1.3,0,1.6c0,0.1,0,0.2-0.1,0.2c-0.1,0-0.1-0.1-0.2-0.3
			l0-0.2c0-0.4-0.4-0.8-1.7-0.8l-1.8,0v5.7c0,1.3,0,2.4,0.1,3c0,0.4,0.1,0.7,0.5,0.8c0.2,0,0.5,0.1,0.7,0.1c0.2,0,0.2,0,0.2,0.1
			c0,0.1-0.1,0.1-0.3,0.1c-0.9,0-1.8,0-2.2,0c-0.3,0-1.2,0-1.8,0c-0.2,0-0.3,0-0.3-0.1c0-0.1,0.1-0.1,0.2-0.1c0.2,0,0.4,0,0.5-0.1
			c0.3-0.1,0.4-0.4,0.4-0.8c0.1-0.6,0.1-1.7,0.1-3V66.1z"/>
		<path class="st1" d="M333.9,69.3c0-2.1,0-2.5,0-3c0-0.5-0.1-0.7-0.6-0.8c-0.1,0-0.4,0-0.5,0c-0.2,0-0.2,0-0.2-0.1
			c0-0.1,0.1-0.1,0.3-0.1c0.7,0,1.6,0,1.9,0c0.5,0,1.5,0,2,0c0.9,0,1.8,0.1,2.6,0.6c0.4,0.3,1,1,1,1.9c0,1-0.4,2-1.8,3.1
			c1.2,1.6,2.2,2.8,3,3.7c0.8,0.8,1.4,0.9,1.6,1c0.2,0,0.3,0,0.4,0c0.1,0,0.2,0,0.2,0.1c0,0.1-0.1,0.1-0.3,0.1H342
			c-0.8,0-1.1-0.1-1.5-0.3c-0.6-0.3-1.1-1-1.9-2.1c-0.6-0.8-1.2-1.7-1.4-1.9c-0.1-0.1-0.2-0.1-0.3-0.1l-1.2,0c-0.1,0-0.1,0-0.1,0.1
			v0.2c0,1.3,0,2.4,0.1,3c0,0.4,0.1,0.7,0.5,0.8c0.2,0,0.5,0.1,0.7,0.1c0.1,0,0.2,0,0.2,0.1c0,0.1-0.1,0.1-0.3,0.1
			c-0.8,0-1.8,0-2.1,0c-0.3,0-1.1,0-1.7,0c-0.2,0-0.3,0-0.3-0.1c0-0.1,0.1-0.1,0.2-0.1c0.2,0,0.4,0,0.5-0.1c0.3-0.1,0.3-0.4,0.4-0.8
			c0.1-0.6,0.1-1.7,0.1-3V69.3z M335.6,70.5c0,0.2,0,0.2,0.1,0.3c0.3,0.1,0.7,0.1,1.1,0.1c0.6,0,0.7-0.1,1-0.2
			c0.4-0.3,0.8-1,0.8-2.1c0-2-1.3-2.6-2.1-2.6c-0.3,0-0.6,0-0.7,0.1c-0.1,0-0.1,0.1-0.1,0.2V70.5z"/>
		<path class="st1" d="M346,72.2c-0.1,0-0.1,0-0.1,0.1l-0.8,2c-0.1,0.4-0.2,0.7-0.2,0.9c0,0.3,0.1,0.4,0.6,0.4h0.2
			c0.2,0,0.2,0,0.2,0.1c0,0.1-0.1,0.1-0.2,0.1c-0.4,0-1.1,0-1.5,0c-0.2,0-0.9,0-1.7,0c-0.2,0-0.3,0-0.3-0.1c0-0.1,0.1-0.1,0.2-0.1
			c0.1,0,0.3,0,0.4,0c0.6-0.1,0.9-0.6,1.2-1.3l3.5-8.8c0.2-0.4,0.3-0.6,0.4-0.6c0.1,0,0.2,0.1,0.3,0.4c0.3,0.8,2.6,6.5,3.5,8.6
			c0.5,1.3,0.9,1.5,1.2,1.5c0.2,0,0.4,0.1,0.6,0.1c0.1,0,0.2,0,0.2,0.1c0,0.1-0.1,0.1-0.6,0.1c-0.5,0-1.5,0-2.6,0
			c-0.3,0-0.4,0-0.4-0.1c0-0.1,0.1-0.1,0.2-0.1c0.1,0,0.2-0.2,0.1-0.3l-1.1-3c0-0.1-0.1-0.1-0.1-0.1H346z M348.9,71.5
			C349,71.5,349,71.5,348.9,71.5l-1.2-3.5c0-0.1,0-0.1-0.1-0.1s-0.1,0.1-0.1,0.1l-1.3,3.4c0,0.1,0,0.1,0.1,0.1H348.9z"/>
	</g>
</g>
</svg>
